<svg xmlns="http://www.w3.org/2000/svg" xmlns:xlink="http://www.w3.org/1999/xlink" width="851" zoomAndPan="magnify" viewBox="0 0 638.25 236.249991" height="315" preserveAspectRatio="xMidYMid meet" version="1.0"><defs><g/><clipPath id="c9edaef2b9"><path d="M 1 58.835938 L 112.78125 58.835938 L 112.78125 176.960938 L 1 176.960938 Z M 1 58.835938 " clip-rule="nonzero"/></clipPath><clipPath id="2d1a02663d"><path d="M 65.117188 113.730469 L 15.015625 113.730469 C 13.070312 113.730469 11.664062 111.875 12.191406 110.003906 L 25.945312 60.984375 C 26.300781 59.71875 27.453125 58.84375 28.769531 58.84375 L 78.871094 58.84375 C 80.816406 58.84375 82.222656 60.699219 81.695312 62.566406 L 67.941406 111.589844 C 67.585938 112.855469 66.433594 113.730469 65.117188 113.730469 Z M 32.574219 150.730469 L 39.65625 125.492188 C 40.183594 123.621094 38.777344 121.765625 36.832031 121.765625 L 11.078125 121.765625 C 9.761719 121.765625 8.609375 122.640625 8.253906 123.90625 L 1.171875 149.144531 C 0.644531 151.015625 2.050781 152.871094 3.996094 152.871094 L 29.75 152.871094 C 31.066406 152.871094 32.21875 151.996094 32.574219 150.730469 Z M 45.609375 123.90625 L 31.851562 172.925781 C 31.328125 174.796875 32.734375 176.652344 34.675781 176.652344 L 84.78125 176.652344 C 86.09375 176.652344 87.25 175.777344 87.605469 174.511719 L 101.359375 125.492188 C 101.882812 123.621094 100.476562 121.765625 98.535156 121.765625 L 48.433594 121.765625 C 47.117188 121.765625 45.964844 122.640625 45.609375 123.90625 Z M 80.972656 84.761719 L 73.890625 110.003906 C 73.367188 111.875 74.773438 113.730469 76.714844 113.730469 L 102.472656 113.730469 C 103.785156 113.730469 104.941406 112.855469 105.296875 111.589844 L 112.378906 86.347656 C 112.902344 84.476562 111.496094 82.621094 109.554688 82.621094 L 83.796875 82.621094 C 82.484375 82.621094 81.328125 83.496094 80.972656 84.761719 Z M 80.972656 84.761719 " clip-rule="nonzero"/></clipPath><clipPath id="e1efcefdfb"><rect x="0" width="457" y="0" height="116"/></clipPath><clipPath id="0be6822d48"><path d="M 178 125 L 636.867188 125 L 636.867188 195 L 178 195 Z M 178 125 " clip-rule="nonzero"/></clipPath><clipPath id="8716e35456"><rect x="0" width="459" y="0" height="70"/></clipPath></defs><g clip-path="url(#c9edaef2b9)"><g clip-path="url(#2d1a02663d)"><path fill="#ff3c00" d="M 0.644531 58.84375 L 0.644531 176.652344 L 112.78125 176.652344 L 112.78125 58.84375 Z M 0.644531 58.84375 " fill-opacity="1" fill-rule="nonzero"/></g></g><path stroke-linecap="butt" transform="matrix(0, -0.747627, 0.747627, 0, 144.107209, 180.245498)" fill="none" stroke-linejoin="miter" d="M -0.000796258 2.500385 L 162.39333 2.500385 " stroke="#ffffff" stroke-width="5" stroke-opacity="1" stroke-miterlimit="4"/><g transform="matrix(1, 0, 0, 1, 178, 39)"><g clip-path="url(#e1efcefdfb)"><g fill="#ffffff" fill-opacity="1"><g transform="translate(1.060151, 88.453047)"><g><path d="M 14.574219 0 L 3.578125 -62.59375 L 9.390625 -62.59375 L 19.402344 -3.398438 L 20.476562 -3.398438 L 33.441406 -62.59375 L 43.996094 -62.59375 L 56.960938 -3.398438 L 58.03125 -3.398438 L 68.046875 -62.59375 L 73.859375 -62.59375 L 62.863281 0 L 52.222656 0 L 39.253906 -59.195312 L 38.183594 -59.195312 L 25.214844 0 Z M 14.574219 0 "/></g></g></g><g fill="#ffffff" fill-opacity="1"><g transform="translate(78.486655, 88.453047)"><g><path d="M 7.691406 0 L 7.691406 -62.59375 L 45.515625 -62.59375 L 45.515625 -57.40625 L 13.414062 -57.40625 L 13.414062 -33.980469 L 43.011719 -33.980469 L 43.011719 -28.792969 L 13.414062 -28.792969 L 13.414062 -5.1875 L 45.871094 -5.1875 L 45.871094 0 Z M 7.691406 0 "/></g></g></g><g fill="#ffffff" fill-opacity="1"><g transform="translate(129.180448, 88.453047)"><g><path d="M 4.292969 0 L 4.292969 -5.1875 L 13.234375 -5.1875 L 13.234375 -57.40625 L 4.292969 -57.40625 L 4.292969 -62.59375 L 35.320312 -62.59375 C 38.898438 -62.59375 42.085938 -61.9375 44.886719 -60.625 C 47.691406 -59.316406 49.882812 -57.480469 51.460938 -55.128906 C 53.039062 -52.773438 53.832031 -50.046875 53.832031 -46.945312 L 53.832031 -46.230469 C 53.832031 -43.308594 53.265625 -40.894531 52.132812 -38.988281 C 51 -37.078125 49.628906 -35.589844 48.019531 -34.515625 C 46.410156 -33.441406 44.828125 -32.667969 43.277344 -32.191406 L 43.277344 -31.117188 C 44.828125 -30.761719 46.421875 -30.03125 48.0625 -28.925781 C 49.703125 -27.824219 51.074219 -26.320312 52.175781 -24.410156 C 53.277344 -22.503906 53.832031 -20.089844 53.832031 -17.167969 L 53.832031 -16.273438 C 53.832031 -12.875 53.011719 -9.957031 51.371094 -7.511719 C 49.730469 -5.066406 47.496094 -3.203125 44.664062 -1.921875 C 41.832031 -0.640625 38.628906 0 35.050781 0 Z M 18.957031 -5.1875 L 34.515625 -5.1875 C 38.988281 -5.1875 42.371094 -6.230469 44.664062 -8.316406 C 46.960938 -10.402344 48.109375 -13.203125 48.109375 -16.722656 L 48.109375 -17.4375 C 48.109375 -20.953125 46.960938 -23.753906 44.664062 -25.84375 C 42.371094 -27.929688 38.988281 -28.972656 34.515625 -28.972656 L 18.957031 -28.972656 Z M 18.957031 -34.160156 L 34.875 -34.160156 C 38.988281 -34.160156 42.222656 -35.1875 44.574219 -37.242188 C 46.929688 -39.300781 48.109375 -41.996094 48.109375 -45.335938 L 48.109375 -46.230469 C 48.109375 -49.566406 46.929688 -52.265625 44.574219 -54.324219 C 42.222656 -56.378906 38.988281 -57.40625 34.875 -57.40625 L 18.957031 -57.40625 Z M 18.957031 -34.160156 "/></g></g></g><g fill="#ffffff" fill-opacity="1"><g transform="translate(188.189097, 88.453047)"><g><path d="M 7.691406 0 L 7.691406 -62.59375 L 44.886719 -62.59375 L 44.886719 -57.40625 L 13.414062 -57.40625 L 13.414062 -33.980469 L 42.296875 -33.980469 L 42.296875 -28.792969 L 13.414062 -28.792969 L 13.414062 0 Z M 7.691406 0 "/></g></g></g><g fill="#ffffff" fill-opacity="1"><g transform="translate(236.647703, 88.453047)"><g><path d="M 7.691406 0 L 7.691406 -62.59375 L 13.414062 -62.59375 L 13.414062 -5.1875 L 46.320312 -5.1875 L 46.320312 0 Z M 7.691406 0 "/></g></g></g><g fill="#ffffff" fill-opacity="1"><g transform="translate(283.94381, 88.453047)"><g><path d="M 29.777344 1.25 C 22.445312 1.25 16.601562 -0.910156 12.25 -5.230469 C 7.898438 -9.554688 5.722656 -15.886719 5.722656 -24.234375 L 5.722656 -38.359375 C 5.722656 -46.707031 7.898438 -53.039062 12.25 -57.363281 C 16.601562 -61.683594 22.445312 -63.84375 29.777344 -63.84375 C 37.109375 -63.84375 42.949219 -61.683594 47.304688 -57.363281 C 51.65625 -53.039062 53.832031 -46.707031 53.832031 -38.359375 L 53.832031 -24.234375 C 53.832031 -15.886719 51.65625 -9.554688 47.304688 -5.230469 C 42.949219 -0.910156 37.109375 1.25 29.777344 1.25 Z M 29.777344 -3.933594 C 35.617188 -3.933594 40.132812 -5.691406 43.324219 -9.210938 C 46.511719 -12.726562 48.109375 -17.675781 48.109375 -24.054688 L 48.109375 -38.539062 C 48.109375 -44.917969 46.511719 -49.867188 43.324219 -53.382812 C 40.132812 -56.902344 35.617188 -58.660156 29.777344 -58.660156 C 23.996094 -58.660156 19.492188 -56.902344 16.273438 -53.382812 C 13.054688 -49.867188 11.445312 -44.917969 11.445312 -38.539062 L 11.445312 -24.054688 C 11.445312 -17.675781 13.054688 -12.726562 16.273438 -9.210938 C 19.492188 -5.691406 23.996094 -3.933594 29.777344 -3.933594 Z M 29.777344 -3.933594 "/></g></g></g><g fill="#ffffff" fill-opacity="1"><g transform="translate(343.4889, 88.453047)"><g><path d="M 7.691406 0 L 7.691406 -62.59375 L 32.191406 -62.59375 C 36.066406 -62.59375 39.480469 -61.9375 42.429688 -60.625 C 45.378906 -59.316406 47.707031 -57.421875 49.402344 -54.949219 C 51.101562 -52.472656 51.953125 -49.480469 51.953125 -45.960938 L 51.953125 -45.066406 C 51.953125 -40.835938 50.9375 -37.511719 48.914062 -35.097656 C 46.886719 -32.683594 44.5 -31.089844 41.757812 -30.3125 L 41.757812 -29.238281 C 43.84375 -29.179688 45.605469 -28.523438 47.035156 -27.273438 C 48.464844 -26.019531 49.179688 -24.023438 49.179688 -21.28125 L 49.179688 0 L 43.457031 0 L 43.457031 -20.65625 C 43.457031 -22.5625 42.9375 -24.023438 41.894531 -25.039062 C 40.851562 -26.050781 39.285156 -26.558594 37.199219 -26.558594 L 13.414062 -26.558594 L 13.414062 0 Z M 13.414062 -31.742188 L 31.65625 -31.742188 C 36.304688 -31.742188 39.894531 -32.832031 42.429688 -35.007812 C 44.964844 -37.183594 46.230469 -40.296875 46.230469 -44.351562 L 46.230469 -44.800781 C 46.230469 -48.851562 44.992188 -51.96875 42.519531 -54.144531 C 40.046875 -56.320312 36.421875 -57.40625 31.65625 -57.40625 L 13.414062 -57.40625 Z M 13.414062 -31.742188 "/></g></g></g><g fill="#ffffff" fill-opacity="1"><g transform="translate(399.904743, 88.453047)"><g><path d="M 2.503906 0 L 22.980469 -62.59375 L 33.175781 -62.59375 L 53.652344 0 L 47.660156 0 L 42.296875 -16.632812 L 13.859375 -16.632812 L 8.496094 0 Z M 15.46875 -21.816406 L 40.6875 -21.816406 L 28.613281 -59.195312 L 27.542969 -59.195312 Z M 15.46875 -21.816406 "/></g></g></g></g></g><g clip-path="url(#0be6822d48)"><g transform="matrix(1, 0, 0, 1, 178, 125)"><g clip-path="url(#8716e35456)"><g fill="#ffffff" fill-opacity="1"><g transform="translate(1.060151, 53.111239)"><g><path d="M 13.761719 0 L 13.761719 -33.722656 L 1.472656 -33.722656 L 1.472656 -36.769531 L 29.414062 -36.769531 L 29.414062 -33.722656 L 17.125 -33.722656 L 17.125 0 Z M 13.761719 0 "/></g></g></g><g fill="#ffffff" fill-opacity="1"><g transform="translate(39.496316, 53.111239)"><g><path d="M 4.515625 0 L 4.515625 -36.769531 L 26.734375 -36.769531 L 26.734375 -33.722656 L 7.878906 -33.722656 L 7.878906 -19.960938 L 25.265625 -19.960938 L 25.265625 -16.914062 L 7.878906 -16.914062 L 7.878906 -3.046875 L 26.945312 -3.046875 L 26.945312 0 Z M 4.515625 0 "/></g></g></g><g fill="#ffffff" fill-opacity="1"><g transform="translate(76.82993, 53.111239)"><g><path d="M 17.542969 0.734375 C 13.238281 0.734375 9.796875 -0.535156 7.222656 -3.074219 C 4.648438 -5.613281 3.363281 -9.332031 3.363281 -14.234375 L 3.363281 -22.535156 C 3.363281 -27.4375 4.648438 -31.15625 7.222656 -33.695312 C 9.796875 -36.234375 13.238281 -37.503906 17.542969 -37.503906 C 21.816406 -37.503906 25.082031 -36.304688 27.339844 -33.90625 C 29.597656 -31.507812 30.726562 -28.242188 30.726562 -24.109375 L 30.726562 -23.847656 L 27.367188 -23.847656 L 27.367188 -24.214844 C 27.367188 -27.226562 26.570312 -29.6875 24.976562 -31.59375 C 23.382812 -33.503906 20.90625 -34.457031 17.542969 -34.457031 C 14.148438 -34.457031 11.496094 -33.421875 9.585938 -31.359375 C 7.675781 -29.292969 6.722656 -26.386719 6.722656 -22.636719 L 6.722656 -14.128906 C 6.722656 -10.382812 7.675781 -7.476562 9.585938 -5.410156 C 11.496094 -3.34375 14.148438 -2.3125 17.542969 -2.3125 C 20.90625 -2.3125 23.382812 -3.265625 24.976562 -5.171875 C 26.570312 -7.082031 27.367188 -9.542969 27.367188 -12.554688 L 27.367188 -13.339844 L 30.726562 -13.339844 L 30.726562 -12.660156 C 30.726562 -8.527344 29.597656 -5.261719 27.339844 -2.863281 C 25.082031 -0.464844 21.816406 0.734375 17.542969 0.734375 Z M 17.542969 0.734375 "/></g></g></g><g fill="#ffffff" fill-opacity="1"><g transform="translate(118.048757, 53.111239)"><g><path d="M 4.515625 0 L 4.515625 -36.769531 L 7.878906 -36.769531 L 7.878906 -19.960938 L 26.578125 -19.960938 L 26.578125 -36.769531 L 29.941406 -36.769531 L 29.941406 0 L 26.578125 0 L 26.578125 -16.914062 L 7.878906 -16.914062 L 7.878906 0 Z M 4.515625 0 "/></g></g></g><g fill="#ffffff" fill-opacity="1"><g transform="translate(160.055118, 53.111239)"><g><path d="M 4.515625 0 L 4.515625 -36.769531 L 11.1875 -36.769531 L 26.210938 -1.996094 L 26.839844 -1.996094 L 26.839844 -36.769531 L 30.203125 -36.769531 L 30.203125 0 L 23.53125 0 L 8.507812 -34.824219 L 7.878906 -34.824219 L 7.878906 0 Z M 4.515625 0 "/></g></g></g><g fill="#ffffff" fill-opacity="1"><g transform="translate(202.323991, 53.111239)"><g><path d="M 17.492188 0.734375 C 13.183594 0.734375 9.753906 -0.535156 7.195312 -3.074219 C 4.640625 -5.613281 3.363281 -9.332031 3.363281 -14.234375 L 3.363281 -22.535156 C 3.363281 -27.4375 4.640625 -31.15625 7.195312 -33.695312 C 9.753906 -36.234375 13.183594 -37.503906 17.492188 -37.503906 C 21.796875 -37.503906 25.230469 -36.234375 27.785156 -33.695312 C 30.34375 -31.15625 31.621094 -27.4375 31.621094 -22.535156 L 31.621094 -14.234375 C 31.621094 -9.332031 30.34375 -5.613281 27.785156 -3.074219 C 25.230469 -0.535156 21.796875 0.734375 17.492188 0.734375 Z M 17.492188 -2.3125 C 20.921875 -2.3125 23.574219 -3.34375 25.449219 -5.410156 C 27.320312 -7.476562 28.257812 -10.382812 28.257812 -14.128906 L 28.257812 -22.636719 C 28.257812 -26.386719 27.320312 -29.292969 25.449219 -31.359375 C 23.574219 -33.421875 20.921875 -34.457031 17.492188 -34.457031 C 14.09375 -34.457031 11.449219 -33.421875 9.558594 -31.359375 C 7.667969 -29.292969 6.722656 -26.386719 6.722656 -22.636719 L 6.722656 -14.128906 C 6.722656 -10.382812 7.667969 -7.476562 9.558594 -5.410156 C 11.449219 -3.34375 14.09375 -2.3125 17.492188 -2.3125 Z M 17.492188 -2.3125 "/></g></g></g><g fill="#ffffff" fill-opacity="1"><g transform="translate(244.855401, 53.111239)"><g><path d="M 4.515625 0 L 4.515625 -36.769531 L 7.878906 -36.769531 L 7.878906 -3.046875 L 27.207031 -3.046875 L 27.207031 0 Z M 4.515625 0 "/></g></g></g><g fill="#ffffff" fill-opacity="1"><g transform="translate(280.193474, 53.111239)"><g><path d="M 17.492188 0.734375 C 13.183594 0.734375 9.753906 -0.535156 7.195312 -3.074219 C 4.640625 -5.613281 3.363281 -9.332031 3.363281 -14.234375 L 3.363281 -22.535156 C 3.363281 -27.4375 4.640625 -31.15625 7.195312 -33.695312 C 9.753906 -36.234375 13.183594 -37.503906 17.492188 -37.503906 C 21.796875 -37.503906 25.230469 -36.234375 27.785156 -33.695312 C 30.34375 -31.15625 31.621094 -27.4375 31.621094 -22.535156 L 31.621094 -14.234375 C 31.621094 -9.332031 30.34375 -5.613281 27.785156 -3.074219 C 25.230469 -0.535156 21.796875 0.734375 17.492188 0.734375 Z M 17.492188 -2.3125 C 20.921875 -2.3125 23.574219 -3.34375 25.449219 -5.410156 C 27.320312 -7.476562 28.257812 -10.382812 28.257812 -14.128906 L 28.257812 -22.636719 C 28.257812 -26.386719 27.320312 -29.292969 25.449219 -31.359375 C 23.574219 -33.421875 20.921875 -34.457031 17.492188 -34.457031 C 14.09375 -34.457031 11.449219 -33.421875 9.558594 -31.359375 C 7.667969 -29.292969 6.722656 -26.386719 6.722656 -22.636719 L 6.722656 -14.128906 C 6.722656 -10.382812 7.667969 -7.476562 9.558594 -5.410156 C 11.449219 -3.34375 14.09375 -2.3125 17.492188 -2.3125 Z M 17.492188 -2.3125 "/></g></g></g><g fill="#ffffff" fill-opacity="1"><g transform="translate(322.724885, 53.111239)"><g><path d="M 17.332031 0.734375 C 14.53125 0.734375 12.082031 0.167969 9.980469 -0.972656 C 7.878906 -2.109375 6.25 -3.789062 5.09375 -6.015625 C 3.9375 -8.238281 3.363281 -10.976562 3.363281 -14.234375 L 3.363281 -22.535156 C 3.363281 -27.4375 4.648438 -31.15625 7.222656 -33.695312 C 9.796875 -36.234375 13.238281 -37.503906 17.542969 -37.503906 C 21.816406 -37.503906 25.046875 -36.3125 27.234375 -33.929688 C 29.421875 -31.550781 30.515625 -28.382812 30.515625 -24.425781 L 30.515625 -24.160156 L 27.15625 -24.160156 L 27.15625 -24.53125 C 27.15625 -26.457031 26.824219 -28.164062 26.15625 -29.652344 C 25.492188 -31.140625 24.449219 -32.3125 23.03125 -33.167969 C 21.613281 -34.027344 19.785156 -34.457031 17.542969 -34.457031 C 14.148438 -34.457031 11.496094 -33.421875 9.585938 -31.359375 C 7.675781 -29.292969 6.722656 -26.386719 6.722656 -22.636719 L 6.722656 -14.128906 C 6.722656 -10.382812 7.675781 -7.476562 9.585938 -5.410156 C 11.496094 -3.34375 14.148438 -2.3125 17.542969 -2.3125 C 20.871094 -2.3125 23.320312 -3.273438 24.898438 -5.199219 C 26.472656 -7.125 27.261719 -9.71875 27.261719 -12.972656 L 27.261719 -14.023438 L 15.128906 -14.023438 L 15.128906 -16.964844 L 30.515625 -16.964844 L 30.515625 0 L 27.472656 0 L 27.472656 -4.148438 L 26.839844 -4.148438 C 26.421875 -3.308594 25.824219 -2.511719 25.054688 -1.757812 C 24.285156 -1.007812 23.277344 -0.402344 22.035156 0.0507812 C 20.792969 0.507812 19.222656 0.734375 17.332031 0.734375 Z M 17.332031 0.734375 "/></g></g></g><g fill="#ffffff" fill-opacity="1"><g transform="translate(364.888769, 53.111239)"><g><path d="M 4.515625 -36.769531 L 7.878906 -36.769531 L 7.878906 0 L 4.515625 0 Z M 4.515625 -36.769531 "/></g></g></g><g fill="#ffffff" fill-opacity="1"><g transform="translate(384.843868, 53.111239)"><g><path d="M 4.515625 0 L 4.515625 -36.769531 L 26.734375 -36.769531 L 26.734375 -33.722656 L 7.878906 -33.722656 L 7.878906 -19.960938 L 25.265625 -19.960938 L 25.265625 -16.914062 L 7.878906 -16.914062 L 7.878906 -3.046875 L 26.945312 -3.046875 L 26.945312 0 Z M 4.515625 0 "/></g></g></g><g fill="#ffffff" fill-opacity="1"><g transform="translate(422.177481, 53.111239)"><g><path d="M 16.546875 0.734375 C 13.917969 0.734375 11.574219 0.269531 9.507812 -0.65625 C 7.441406 -1.585938 5.8125 -3.003906 4.621094 -4.910156 C 3.433594 -6.820312 2.835938 -9.246094 2.835938 -12.1875 L 2.835938 -13.183594 L 6.199219 -13.183594 L 6.199219 -12.1875 C 6.199219 -8.789062 7.167969 -6.277344 9.113281 -4.648438 C 11.054688 -3.019531 13.535156 -2.207031 16.546875 -2.207031 C 19.59375 -2.207031 21.9375 -2.914062 23.585938 -4.332031 C 25.230469 -5.75 26.050781 -7.5625 26.050781 -9.769531 C 26.050781 -11.242188 25.695312 -12.421875 24.976562 -13.316406 C 24.257812 -14.207031 23.261719 -14.925781 21.980469 -15.46875 C 20.703125 -16.011719 19.222656 -16.492188 17.542969 -16.914062 L 14.183594 -17.753906 C 12.1875 -18.277344 10.398438 -18.933594 8.824219 -19.722656 C 7.25 -20.511719 6.003906 -21.542969 5.09375 -22.824219 C 4.183594 -24.101562 3.730469 -25.738281 3.730469 -27.734375 C 3.730469 -29.730469 4.246094 -31.460938 5.277344 -32.933594 C 6.3125 -34.402344 7.738281 -35.535156 9.558594 -36.320312 C 11.378906 -37.109375 13.5 -37.503906 15.914062 -37.503906 C 18.332031 -37.503906 20.511719 -37.082031 22.453125 -36.242188 C 24.398438 -35.402344 25.9375 -34.167969 27.078125 -32.539062 C 28.214844 -30.910156 28.785156 -28.871094 28.785156 -26.421875 L 28.785156 -23.953125 L 25.421875 -23.953125 L 25.421875 -26.421875 C 25.421875 -28.347656 25.003906 -29.90625 24.160156 -31.09375 C 23.320312 -32.285156 22.183594 -33.160156 20.746094 -33.722656 C 19.3125 -34.28125 17.699219 -34.5625 15.914062 -34.5625 C 13.359375 -34.5625 11.25 -33.976562 9.585938 -32.800781 C 7.921875 -31.628906 7.089844 -29.941406 7.089844 -27.734375 C 7.089844 -26.261719 7.433594 -25.089844 8.113281 -24.214844 C 8.796875 -23.339844 9.761719 -22.636719 11.003906 -22.113281 C 12.246094 -21.589844 13.710938 -21.117188 15.390625 -20.695312 L 18.75 -19.855469 C 20.675781 -19.398438 22.445312 -18.796875 24.058594 -18.042969 C 25.667969 -17.289062 26.964844 -16.257812 27.945312 -14.945312 C 28.925781 -13.628906 29.414062 -11.90625 29.414062 -9.769531 C 29.414062 -7.632812 28.878906 -5.777344 27.8125 -4.203125 C 26.746094 -2.625 25.246094 -1.410156 23.320312 -0.550781 C 21.394531 0.304688 19.136719 0.734375 16.546875 0.734375 Z M 16.546875 0.734375 "/></g></g></g></g></g></g></svg>